<?xml version="1.0" encoding="UTF-8"?>
<svg id="Layer_1" xmlns="http://www.w3.org/2000/svg" viewBox="0 0 180 219.3">
  <defs>
    <style>
      .cls-1 {
        fill: #fff;
      }
    </style>
  </defs>
  <g>
    <path class="cls-1" d="M33.96,16.33c-1.21-1.66-2.46-2.98-3.56-4.01-.24.29-.54.59-.89.89-.8.68-1.61,1.09-2.23,1.34-.93-.05-1.98-.19-3.12-.45-2.71-.62-4.81-1.73-6.24-2.67-1.49,1.19-2.97,2.38-4.46,3.56.1,1.44.13,3.09,0,4.9-.09,1.29-.25,2.48-.45,3.56-.45.8-.9,1.7-1.34,2.67-.56,1.27-1,2.47-1.34,3.56-.16.64-.07,1.1,0,1.34.49,1.63,2.74,2.07,3.56,2.23.58.11.97.1,1.34,0,.21-.06.68-.22,1.34-.89.34-.35,1.82-1.87,1.34-2.67-.34-.57-1.49-.48-1.78-.45-.28.04-.68.13-.89.45-.46.7.39,1.93,0,2.23-.06.04-.18.09-.45,0-.22-.62-.47-1.55-.45-2.67.03-1.43.47-1.99.89-3.56.54-2.01.49-3.66.45-5.35-.03-1.05-.13-2.42-.45-4.01,1.04-.89,2.08-1.78,3.12-2.67.83,1.78,2.54,4.84,5.79,7.57,2.69,2.27,5.38,3.42,7.13,4.01.99-.87,2.05-1.9,3.12-3.12.67-.76,1.26-1.51,1.78-2.23-.57-1.09-1.3-2.3-2.23-3.56ZM31.28,23.02c-.58.49-1.46.23-2.23,0-.49-.15-.74-.22-.89-.45-.4-.59.02-1.83.89-2.23.59-.27,1.18-.06,1.34,0,.68.25,1.42.95,1.34,1.78,0,.08-.06.57-.45.89Z"/>
    <path class="cls-1" d="M16.34,16.55c.38-.94,1.52-1.35,2.28-1.53.92,1.78,2.71,4.68,5.91,7.28,2.65,2.16,5.27,3.29,7.03,3.89.46-.2,1.07-.52,1.7-1.03.68-.55,1.14-1.14,1.43-1.57,1.51,1.21,2.29,2.52,2.68,3.29.62,1.22,1.33,2.64.88,4.28-.4,1.47-1.52,2.32-1.99,2.64-3.69.7-7.39,1.41-11.08,2.11-2.5-.36-4.99-.72-7.49-1.08.4-2.21.4-4,.33-5.22-.09-1.55-.65-8.01-1.68-11.56-.07-.24-.26-.87,0-1.5Z"/>
    <path class="cls-1" d="M29.53,22.54c-.12-.06-.37-.18-.51-.46-.13-.27-.13-.65.06-.86.37-.42,1.5-.18,1.78.45.1.24.1.58-.08.8-.29.36-.92.23-1.25.08Z"/>
  </g>
  <path class="cls-1" d="M144.12,32.94c-.05-.12-.23-.66-.07-2.31.37-3.78.35-3.78.45-4.1.39-1.34.97-2.2,1.93-3.6,1.31-1.91,2.58-3.18,3.11-3.71,5.31-5.27,7.97-7.9,9.41-7.17.75.38,1.16,1.63.81,2.35-.29.58-1.2,1.02-1.78.81-.27-.1-.47-.34-.85-.32-.05,0-.36.02-.44.19-.12.27.37.86.79,1.07.96.49,2.26-.58,4.63-2.07.97-.61,2.35-1.44,4.1-2.34-.18.53-.35,1.26-.64,2.08-.48,1.38-.63,2.36-.92,4.33-.45,3.03-.74,4.92-.3,7.17.47,2.44,1.18,2.15,2.31,5.82.65,2.11.51,6.23.32,6.42-.46.45-1.26.43-1.26.43h-3.06s.07-1.09.03-1.41c-.07-.53.03-2.74-.16-7.2-.15-3.35-.42-3.02-.35-4.91.11-2.93.82-5.09.83-5.08.06.01-1.05,3.1-1.49,7.87-.49,5.47.48,6.86-.85,8.39-1.93,2.24-6.74,2.53-9.31.64-1.54-1.14-1.66-2.61-3.45-3.1-1.73-.47-3.74-.13-3.79-.27Z"/>
  <g>
    <path class="cls-1" d="M162.37,149.21l-.92.71c-.5.39-1.23.28-1.59-.24l-6.4-9.16c-.35-.5-1.03-.62-1.53-.29l-1.01.67c-.26.17-.61.11-.78-.15-1.4-2.06-2.4-3.88-3.08-5.25-3.06-6.17-2.81-9.34-2.72-10.18.04-.37.09-.7.14-.98.04-.21.3-.26.43-.1,5.89,7.81,11.77,15.61,17.66,23.42.37.49.27,1.18-.21,1.55Z"/>
    <path class="cls-1" d="M149.93,150.33c.21.07.44,0,.58-.17.75-.93,1.52-2,2.29-3.21.6-.96,1.28-2.01,1.75-2.9.07-.14.06-.31-.02-.44-.51-.76-1.15-1.43-1.65-2.21-.04-.06-.13-.08-.18-.02-.64.67-1.3,1.4-1.96,2.21-1.25,1.54-2.26,3.04-3.07,4.43-.1.17-.09.38.01.55.22.35.57.8,1.13,1.19.41.29.8.46,1.13.56Z"/>
    <path class="cls-1" d="M157.04,138.45l-1.28-1.44c-.09-.11-.11-.26-.03-.38l1.51-2.29c.08-.12.07-.28-.04-.39-.5-.52-1.36-1.58-1.38-2.99-.03-1.57,1-2.68,2.18-3.95.52-.56,2.82-2.27,3.93-3,.3-.2.65.18.42.46-.82.96-3.09,3.08-3.38,4.37-.06.25,0,.49.2.6.34.19,1.43-.73,3.01-2.05.78-.65,1.35-1.68,1.95-2.01.24-.13.52.09.45.35-.21.78-.86,2.06-1.27,3.15-.67,1.76-1.01,2.73-.78,2.9.26.2,1.33-.75,1.94-1.4.68-.73,1.35-2.82,1.74-3.48.17-.29.62-.13.58.2-.22,1.58-.76,4.18-1.1,5.06-.6,1.54-1.01,2.55-2.07,3.2-1.49.91-3.25.47-3.98.23-.13-.04-.28,0-.36.13-.58.9-1.17,1.79-1.75,2.69-.11.17-.36.19-.5.04Z"/>
  </g>
  <g>
    <path class="cls-1" d="M24.17,130.11c-.07-.06-.12-.14-.15-.22-.36-.89-.52-1.64-.59-2.18-.16-1.15-.12-2.6-.12-2.6h0c.13-.12.35-.31.66-.46.67-.32,1.24-.24,2.84-.16.28.02.72.04,1.27.06.09,0,.17.02.25.06.38.19.85.47,1.33.89.31.27.55.54.74.79.07.08.11.18.12.28.03.22.05.48.04.77-.01.31-.06.58-.11.8,0,.02-.01.04-.02.06-.12.38-.3.83-.57,1.31-.35.62-.74,1.09-1.08,1.45-.09.1-.22.16-.35.18-.4.05-.9.08-1.46.02-.44-.05-.82-.14-1.14-.23-.25-.04-.63-.13-1.03-.35-.27-.15-.49-.31-.65-.46Z"/>
    <path class="cls-1" d="M33.93,134.83c-.52-.52-1.25-.95-2.26-1.12-.32-.05.52-.31.36-1.84-.07-.69-.37-1.5-1.3-1.87-.11-.04-.23.02-.26.13-.22.69-1.21,2.86-4.9,1.93-3.05-.76-3.57-3.25-3.66-4.02-.02-.14-.14-.25-.29-.23-.55.06-1,.45-1.17.59-.79.69-1.18,2.23-.73,3.57.43,1.26,1.32,1.43,1.29,2.47-.02.74-.5,1.3-.66,1.49-.62.72-1.43.93-1.77,1.01-1.47.36-3.79.01-3.93-.01-.16-.03-.32.06-.38.22-.39,1.03-.57,4.79.75,7.27.42.8,2.36,4.44,6.76,5.39,4.5.97,7.82-1.7,8.47-2.22,1.42-1.14,2.75-3.45,3.01-4.59.07-.3-.12-.59-.41-.66-.64-.15-1.89-.52-2.82-1.18-.23-.17-.79-.57-.74-1.04,0-.07.03-.13.04-.17.59.14,2.06.4,3.56-.33.61-.3,1.81-.88,2.07-2.1.21-1.01-.39-2.05-1.02-2.69ZM29.04,138.35c-.58-.12-.88-.61-.94-.7-.36-.56-.45-1.48.09-1.99.67-.64,1.76-.13,1.94-.04.17.08.93.46,1,1.12.08.87-1.11,1.83-2.09,1.62Z"/>
  </g>
  <path class="cls-1" d="M86.73,38.17l-2.76-6.56,1.15-1.34.06-5.73,2.23-2.69h6.83l2.4,2.48.11,5.9.98.02-.13,2.8-2.19,4.82.87,1.1,2.33.36s7.32,4.12,7.43,4.14,5.6-.23,5.6-.23l3.65,4.01s2.04,3.88,2.1,3.9,3.44,1.34,3.44,1.34l5.86,5.71s2.86,1.21,2.95,1.21,10.11,8.44,10.11,8.44l1.88,3.03,4.39,8.91.21,5.47-1.06,2.46-.87-.21-1.89-1.17-.62-3.06-4.01-7.19-1.21.08-.4,2.4-1.17,1.57-1.65-.02-.49-.66.15-.72.98-.89-.28-1.87.11-2.16-.87-1.29-7.11-2.38-4.01-5.26-3.06-.51-5.11-2.61-3.97-3.86-1-2.63-.66.11-2.52,6.66-4.63,4.94.02,3.33,2.1,6.28-.04,8.04,1.99,7.74.38,8.95-1.99,5.52-.25,9.78,2.08,4.56-.25,5.35-3.56,8.08-.23,4.88-.81.85.4,1.19,2.29,3.18-.08,1.8-1.27.66-1.44.34-.45.79-1.53-1.15-1.06,1.15-1.76-.17-1.06-.59-1.21-.25s-.45-5.69-.51-5.73,1.4-1.32,1.4-1.46-.32-4.29-.32-4.29l.81-1.02s-.17-4.01-.17-4.12-2.16-4.5-2.16-4.65-.08-6.36,0-6.49,1.4-3.54,1.4-3.54c0,0-.17-2.08-.19-2.21s-1.4-3.12-1.4-3.12c0,0-.68-6.45-.62-6.7s.02-12.33.02-12.33l-.91-.02-.42,14.11-.42,5.94s-1.32,2.57-1.32,2.76.02,2.12.02,2.12l1.32,4.46-.15,5.73-1.91,3.84v4.67l.79.89-.08,1.32s-.53.79-.53.85.17,1.29.17,1.29l1.08,1.91.02,5.05-2.76,1.76-2.02-.23s-.62-.93-.7-.91-.76,1.04-.76,1.04c0,0-1.08.02-1.1-.04s-.17-.93-.34-.93-1.27-.04-1.27-.04c0,0-.36-.72-.49-.74s-.85-.11-.85-.11c0,0-.17-1.44-.17-1.51s2.59-3.54,2.59-3.54l.13-1s-.53-.51-.53-.62-.21-4.5-.21-4.5l-1.7-4.86-1.8-4.22-.38-5.11,2.21-4.77s0-6.7-.02-6.79-.25-2.48-.25-2.48l-1.44-3.63-.85-3.5.21-6.87,1.57-4.05s.85-5.6.87-5.73.04-7,.04-7c0,0,1.87-6,1.93-6.03s.21-2.93.21-2.93l-3.01-2.91-2.1-2.74-1.87-5.98-.76-.28-2.48,3.69-3.99,3.29-3.42,1.55-3.37,1.17-4.01,4.39-4.16,2.14-3.44,1.19-.45.76v2.76l-.42.28v1.46l1.23.85.08,1.04-.95.55-1.7-.3-.79-1.49-.13-2.25-1.4-.4s-.59,1.72-.62,1.78-1.59,2.48-1.59,2.48l-1.61,2.8-.34,2.55-.64,1.4h-1.53l-.23.49-1.06-.3-.74-1.82v-5.54l4.56-9.02,7.02-7.7,6.26-4.24,2.69-1.57,4.03-4.12,3.86-2.27,3.76-5.28,2.19-2.36,6.51-.13,7.21-3.84,2.78-.59.19-.55Z"/>
  <g>
    <path class="cls-1" d="M85.42,195.22c0-.45,0-.89-.01-1.34-.52-.44-1.48-1.37-2.07-2.88l-.15-4.38c0-.18-.08-.36-.21-.49-.35-.37-.5-.73-.39-.97.1-.2.38-.29.56-.29.88,0,1.35,2.18,2.29,4.14,1.27,2.63,3.09,4.21,3.83,4.85,1.69,1.46,3.86,3.34,6.56,2.94,2.77-.41,4.39-2.97,4.91-3.9.1-.18.14-.37.14-.57v-4.99c0-.16-.04-.31-.12-.45-.25-.45-.66-1.06-1.31-1.63-.6-.52-1.21-1.06-2.07-1.08-.89-.03-1.55.51-2.31,1.12-.57.46-.99.94-1.28,1.34-.17.23-.45.36-.73.35-1.29-.02-2.58-.04-3.87-.06-.26,0-.49-.14-.63-.36-.63-1.07-1.74-2.55-3.57-3.65-.29-.17-.57-.33-.85-.46-.53-.25-1.14-.3-1.7-.13-.61.18-1.23.35-1.84.53-.15.07-.73.35-.87.92-.15.59.28,1.13.59,1.52.14.18.3.33.44.46.26.22.4.55.41.88.06,1.55.13,3.11.19,4.66.15.57.56,1.81,1.68,2.92.68.67,1.39,1.06,1.93,1.29.21.09.43-.06.43-.29Z"/>
    <path class="cls-1" d="M88.99,196.42c0,.12.07.24.18.3.16.09.31.14.42.16.34.06.76,0,.76,0h0s.04-1.17,0-1.19c-.32-.16-.52-.45-.58-.47-.21-.06-.4-.05-.54-.01-.15.04-.26.18-.26.34,0,.3,0,.59,0,.89Z"/>
    <path class="cls-1" d="M89.02,199.11c-.11-.1-.22-.16-.33-.21-.17-.07-.27-.24-.27-.42-.06-1.54-.11-3.09-.17-4.63,0-.1-.05-.19-.13-.24-.27-.2-.56-.44-.85-.71-.4-.37-.74-.75-1.01-1.1-.07-.09-.2-.03-.2.07l.09,6.06c0,.26-.19.47-.44.53-.04,0-.07.02-.11.04-.3.12-.41.39-.43.43-.1.46-.18.94-.25,1.46-.08.57-.13,1.11-.16,1.61l-.68.22c-.09.21-.19.56-.07.92.15.46.56.67,1.33,1.07.48.25,1.03.55,1.85.7.63.12,1.19.11,1.63.07.28-.03.49-.25.49-.53.02-.75.04-2.16.04-2.19,0-.04.05-2.54.05-2.58-.03-.11-.12-.37-.37-.59ZM88.02,202.77c-.16-.06-1.12-.15-1.38-.7-.15-.32-.07-2.38.42-2.45.4-.06.83.46,1,.91.21.57.43,2.41-.04,2.23Z"/>
    <path class="cls-1" d="M95.71,205.39c-.01-.14-.04-.26-.07-.36-.19-.03-.39-.1-.5-.27-.02-.03-.03-.06-.04-.08-.33-.87-.49-3.12-.49-3.12-.04-.61-.07-.91-.31-1.09-.18-.14-.3-.26-.63-.35-.21-.06-.36-.26-.36-.48,0-.58.03-1.6.05-2.01,0-.11-.06-.2-.15-.25-.31-.13-1.01-.43-1.5-.64-.23-.1-.49.07-.49.32v2.04c0,.26-.14.49-.37.61l-.56.3c-.27.15-.44.43-.44.74v2.56c0,.45-.13.85-.28,1.2-.16.38-.07.83.23,1.12.3.3.68.62,1.15.92.84.54,1.65.82,2.27.96.33.08.67.02.95-.16.23-.15.48-.33.73-.56.37-.34.63-.68.81-.95.02-.11.04-.27.02-.45ZM92.88,205c-.14.05-.36-.19-.45-.33-.18-.27-.08-.45-.26-.69-.16-.22-.28-.13-.42-.31-.32-.4.12-1.09-.1-1.64-.04-.1-.06-.16-.1-.27-.09-.29-.14-.43-.09-.48.08-.09.38.08.49.13.28.15.78.43.99.99.06.16.06.24.06.81,0,1.44.03,1.75-.12,1.79Z"/>
  </g>
</svg>
